#!OML:ASF H:\BreakDance\Project 1\Capture day 1\Session 1\Male.ASF
:FULLY-SPECIFIED
:DEGREES
2476
root 0.926698 15.7379 6.44215 1.78207 -80.0792 358.589
lowerback 0.275901 -0.526531 -1.56509
upperback 3.72795 -0.734906 0.490606
thorax 3.70471 -0.444546 1.35853
lowerneck -5.72933 -5.56395 -4.94283
upperneck 10.6204 -8.18598 9.02298
head 4.69515 -3.78816 3.08465
rclavicle 6.82546e-015 1.16631e-015
rhumerus -35.2073 -8.24952 -86.6081
rradius 93.9092
rwrist 18.4511
rhand -25.0858 -395.288
rfingers 7.12502
rthumb 1.42874 294.737
lclavicle 6.82546e-015 1.16631e-015
lhumerus -27.0451 -3.37459 82.8651
lradius 81.3317
lwrist -11.5638
lhand -34.6581 699.389
lfingers 7.12502
lthumb -7.81482 369.224
rfemur -17.0232 2.20349 6.61073
rtibia 38.6866
rfoot -27.4187 -1.70902
rtoes -37.4205
lfemur 345.493 9.52914 352.357
ltibia 44.6501
lfoot -32.1421 17.2053
ltoes -30.5673
2477
root 0.903499 15.7425 6.4565 1.41324 -80.2879 358.916
lowerback 0.046622 -0.431499 -1.55514
upperback 3.7035 -0.602062 0.457581
thorax 3.80376 -0.377274 1.32126
lowerneck -5.76441 -5.59201 -5.07394
upperneck 10.5394 -8.21589 9.13332
head 4.68847 -3.80227 3.13727
rclavicle 4.38821e-015 2.09889e-015
rhumerus -35.5284 -8.10921 -86.817
rradius 94.0877
rwrist 18.2794
rhand -25.1153 -395.634
rfingers 7.12502
rthumb 1.40024 294.391
lclavicle 4.38821e-015 2.09889e-015
lhumerus -27.2059 -3.51193 83.0365
lradius 81.6793
lwrist -11.4432
lhand -34.9093 698.973
lfingers 7.12502
lthumb -8.05723 368.8
rfemur -16.8686 2.60883 6.53894
rtibia 38.5582
rfoot -27.3558 -1.927
rtoes -37.4136
lfemur 345.831 9.08582 352.153
ltibia 44.4795
lfoot -32.4716 17.7172
ltoes -30.4375
2478
root 0.878046 15.7458 6.47039 1.19114 -80.4494 359.115
lowerback -0.240965 -0.35946 -1.5255
upperback 3.67207 -0.499059 0.424013
thorax 3.92969 -0.324219 1.27175
lowerneck -5.71706 -5.59335 -5.16041
upperneck 10.3734 -8.21037 9.25143
head 4.63787 -3.801 3.19054
rclavicle 5.12443e-016 1.77081e-015
rhumerus -35.856 -7.8416 -86.9773
rradius 94.2541
rwrist 18.13
rhand -25.019 -395.801
rfingers 7.12502
rthumb 1.49326 294.225
lclavicle 5.12443e-016 1.77081e-015
lhumerus -27.4071 -3.63006 83.1695
lradius 82.0233
lwrist -11.4399
lhand -35.2318 698.485
lfingers 7.12502
lthumb -8.36848 368.299
rfemur -16.7187 2.91173 6.49238
rtibia 38.4498
rfoot -27.3271 -2.10135
rtoes -37.4453
lfemur 346.126 8.6339 351.974
ltibia 44.3137
lfoot -32.7549 18.2716
ltoes -30.5096
2479
root 0.852937 15.7481 6.48275 1.20228 -80.5798 359.097
lowerback -0.532531 -0.307159 -1.48447
upperback 3.61678 -0.422771 0.402046
thorax 4.03431 -0.283767 1.22758
lowerneck -5.56629 -5.56431 -5.20488
upperneck 10.131 -8.16413 9.3648
head 4.54155 -3.7831 3.24186
rclavicle -3.78933e-015 -5.87036e-016
rhumerus -36.1982 -7.46217 -87.0825
rradius 94.408
rwrist 17.9425
rhand -24.8325 -395.73
rfingers 7.12502
rthumb 1.67331 294.297
lclavicle -3.78933e-015 -5.87036e-016
lhumerus -27.6712 -3.7213 83.2643
lradius 82.3728
lwrist -11.5067
lhand -35.564 697.953
lfingers 7.12502
lthumb -8.6891 367.755
rfemur -16.5907 3.15337 6.49204
rtibia 38.3644
rfoot -27.313 -2.25768
rtoes -37.5036
lfemur 346.375 8.20163 351.845
ltibia 44.1555
lfoot -32.996 18.8195
ltoes -30.6666
2480
root 0.828275 15.7499 6.49388 1.23091 -80.6789 359.071
lowerback -0.824164 -0.276397 -1.46471
upperback 3.54621 -0.374819 0.385286
thorax 4.12449 -0.257917 1.20007
lowerneck -5.34696 -5.51276 -5.20161
upperneck 9.83751 -8.0859 9.44826
head 4.41262 -3.75241 3.28064
rclavicle 2.57022e-014 -3.78312e-015
rhumerus -36.5441 -6.98933 -87.13
rradius 94.5513
rwrist 17.6848
rhand -24.6006 -395.412
rfingers 7.12502
rthumb 1.89728 294.616
lclavicle 2.57022e-014 -3.78312e-015
lhumerus -27.9804 -3.78075 83.3228
lradius 82.7255
lwrist -11.5996
lhand -35.863 697.408
lfingers 7.12502
lthumb -8.9776 367.197
rfemur -16.4781 3.30634 6.49337
rtibia 38.305
rfoot -27.3188 -2.37323
rtoes -37.5673
lfemur 346.597 7.80326 351.731
ltibia 44.0029
lfoot -33.2218 19.2979
ltoes -30.7899
2481
root 0.804922 15.7515 6.50348 1.03912 -80.7495 359.279
lowerback -1.10221 -0.262982 -1.5069
upperback 3.47087 -0.348355 0.368077
thorax 4.20333 -0.24475 1.2062
lowerneck -5.1423 -5.45938 -5.15048
upperneck 9.54454 -8.00147 9.47313
head 4.28182 -3.7193 3.29348
rclavicle 1.89094e-014 -6.60959e-015
rhumerus -36.8667 -6.45757 -87.1131
rradius 94.6851
rwrist 17.3691
rhand -24.3837 -394.933
rfingers 7.12502
rthumb 2.10681 295.098
lclavicle 1.89094e-014 -6.60959e-015
lhumerus -28.2866 -3.80518 83.3609
lradius 83.06
lwrist -11.6969
lhand -36.1076 696.867
lfingers 7.12502
lthumb -9.21361 366.645
rfemur -16.389 3.39337 6.45213
rtibia 38.2742
rfoot -27.3358 -2.45185
rtoes -37.6056
lfemur 346.8 7.44327 351.595
ltibia 43.8531
lfoot -33.4575 19.655
ltoes -30.7469
2482
root 0.783229 15.7531 6.51109 0.496647 -80.7944 359.851
lowerback -1.36247 -0.259536 -1.63215
upperback 3.39894 -0.332335 0.346337
thorax 4.27666 -0.23959 1.25394
lowerneck -4.99335 -5.42041 -5.07001
upperneck 9.27794 -7.93263 9.44346
head 4.16652 -3.69305 3.28194
rclavicle 1.03865e-014 -5.18083e-015
rhumerus -37.1473 -5.91143 -87.033
rradius 94.8061
rwrist 17.0281
rhand -24.2184 -394.397
rfingers 7.12502
rthumb 2.26647 295.635
lclavicle 1.03865e-014 -5.18083e-015
lhumerus -28.5627 -3.7942 83.3956
lradius 83.3691
lwrist -11.781
lhand -36.2497 696.361
lfingers 7.12502
lthumb -9.35075 366.133
rfemur -16.3283 3.44657 6.3456
rtibia 38.2718
rfoot -27.3584 -2.52028
rtoes -37.6279
lfemur 346.987 7.12476 351.418
ltibia 43.7031
lfoot -33.715 19.8758
ltoes -30.4869
